<svg style="height: 1.5em;width: max-content;max-width:100%;" width="213" height="40" viewBox="0 0 213 40" fill="none" xmlns="http://www.w3.org/2000/svg">
<path d="M9.27199 38.432C7.54399 38.432 5.92799 38.128 4.42399 37.52C2.95199 36.912 1.70399 36.064 0.679993 34.976L3.46399 31.28C4.48799 32.208 5.43199 32.88 6.29599 33.296C7.19199 33.68 7.99199 33.872 8.69599 33.872C9.52799 33.872 10.216 33.744 10.76 33.488C11.304 33.232 11.576 32.816 11.576 32.24C11.576 31.696 11.352 31.264 10.904 30.944C10.488 30.624 9.94399 30.368 9.27199 30.176C8.59999 29.952 7.87999 29.728 7.11199 29.504C5.19199 28.896 3.79999 28.016 2.93599 26.864C2.10399 25.68 1.68799 24.4 1.68799 23.024C1.68799 21.968 1.95999 20.912 2.50399 19.856C3.07999 18.768 3.97599 17.872 5.19199 17.168C6.43999 16.432 8.03999 16.064 9.99199 16.064C11.752 16.064 13.24 16.24 14.456 16.592C15.672 16.944 16.824 17.52 17.912 18.32L15.368 22.256C14.76 21.776 14.072 21.376 13.304 21.056C12.568 20.704 11.88 20.512 11.24 20.48C10.376 20.448 9.70399 20.608 9.22399 20.96C8.74399 21.28 8.50399 21.664 8.50399 22.112C8.47199 22.72 8.69599 23.2 9.17599 23.552C9.68799 23.904 10.328 24.176 11.096 24.368C11.864 24.56 12.616 24.784 13.352 25.04C14.856 25.552 16.056 26.288 16.952 27.248C17.848 28.176 18.296 29.424 18.296 30.992C18.296 32.272 17.96 33.488 17.288 34.64C16.648 35.76 15.656 36.672 14.312 37.376C13 38.08 11.32 38.432 9.27199 38.432Z" fill="white"/>
<path d="M22.5327 7.80799H29.2527V16.928H34.3407V22.16H29.2527V38H22.5327V22.16H19.2687V16.928H22.5327V7.80799Z" fill="white"/>
<path d="M42.8634 39.008C40.9754 39.008 39.3914 38.432 38.1114 37.28C36.8314 36.096 36.1594 34.576 36.0954 32.72V17.024H42.8154V30.224C42.8794 31.152 43.1194 31.904 43.5354 32.48C43.9514 33.024 44.6554 33.296 45.6474 33.296C46.6394 33.296 47.4874 32.96 48.1914 32.288C48.9274 31.616 49.4874 30.704 49.8714 29.552C50.2874 28.368 50.4954 27.04 50.4954 25.568V17.024H57.2154V38H51.1194L50.5914 34.16L50.6874 34.592C49.9834 35.904 48.9754 36.976 47.6634 37.808C46.3514 38.608 44.7514 39.008 42.8634 39.008Z" fill="white"/>
<path d="M69.3106 38.576C67.3586 38.576 65.6146 38.128 64.0786 37.232C62.5426 36.304 61.3266 34.976 60.4306 33.248C59.5666 31.52 59.1346 29.472 59.1346 27.104C59.1346 24.736 59.6146 22.72 60.5746 21.056C61.5346 19.392 62.8466 18.128 64.5106 17.264C66.1746 16.4 68.0626 15.968 70.1746 15.968C71.5186 15.968 72.7986 16.176 74.0146 16.592C75.2626 17.008 76.3026 17.648 77.1346 18.512V20.624V0.127991H83.8066V38H77.0866V33.92L77.6146 35.36C76.5266 36.256 75.3106 37.024 73.9666 37.664C72.6226 38.272 71.0706 38.576 69.3106 38.576ZM71.5186 32.912C72.8626 32.912 73.9826 32.656 74.8786 32.144C75.7746 31.6 76.5106 30.8 77.0866 29.744V24.608C76.7026 23.584 76.0146 22.768 75.0226 22.16C74.0306 21.552 72.8626 21.248 71.5186 21.248C70.5266 21.248 69.5986 21.504 68.7346 22.016C67.9026 22.496 67.2306 23.168 66.7186 24.032C66.2066 24.896 65.9506 25.888 65.9506 27.008C65.9506 28.128 66.2066 29.136 66.7186 30.032C67.2306 30.928 67.9026 31.632 68.7346 32.144C69.5986 32.656 70.5266 32.912 71.5186 32.912Z" fill="white"/>
<path d="M97.6797 38.576C95.1197 38.576 92.9437 38.096 91.1517 37.136C89.3917 36.176 88.0477 34.848 87.1197 33.152C86.1917 31.456 85.7277 29.504 85.7277 27.296C85.7277 25.184 86.2717 23.28 87.3597 21.584C88.4477 19.888 89.9037 18.544 91.7277 17.552C93.5517 16.528 95.5837 16.016 97.8237 16.016C100.832 16.016 103.296 16.896 105.216 18.656C107.168 20.384 108.432 22.896 109.008 26.192L92.6877 31.376L91.1997 27.728L103.008 23.744L101.616 24.368C101.36 23.536 100.896 22.816 100.224 22.208C99.5837 21.568 98.6077 21.248 97.2957 21.248C95.7917 21.248 94.5917 21.76 93.6957 22.784C92.7997 23.808 92.3517 25.184 92.3517 26.912C92.3517 28.864 92.8797 30.352 93.9357 31.376C94.9917 32.368 96.2877 32.864 97.8237 32.864C98.5597 32.864 99.2637 32.736 99.9357 32.48C100.64 32.224 101.328 31.888 102 31.472L104.976 36.464C103.856 37.104 102.64 37.616 101.328 38C100.048 38.384 98.8317 38.576 97.6797 38.576Z" fill="white"/>
<path d="M116.627 17.024L117.155 20.768L117.059 20.432C117.795 19.12 118.835 18.064 120.179 17.264C121.523 16.432 123.171 16.016 125.123 16.016C127.107 16.016 128.755 16.608 130.067 17.792C131.411 18.944 132.099 20.448 132.131 22.304V38H125.411V24.8C125.379 23.872 125.123 23.136 124.643 22.592C124.195 22.016 123.427 21.728 122.339 21.728C120.771 21.728 119.523 22.464 118.595 23.936C117.699 25.376 117.251 27.216 117.251 29.456V38H110.531V17.024H116.627Z" fill="white"/>
<path d="M137.639 7.80799H144.359V16.928H149.447V22.16H144.359V38H137.639V22.16H134.375V16.928H137.639V7.80799Z" fill="white"/>
<path d="M157.97 39.008C156.082 39.008 154.498 38.432 153.218 37.28C151.938 36.096 151.266 34.576 151.202 32.72V17.024H157.922V30.224C157.986 31.152 158.226 31.904 158.642 32.48C159.058 33.024 159.762 33.296 160.754 33.296C161.746 33.296 162.594 32.96 163.298 32.288C164.034 31.616 164.594 30.704 164.978 29.552C165.394 28.368 165.602 27.04 165.602 25.568V17.024H172.322V38H166.226L165.698 34.16L165.794 34.592C165.09 35.904 164.082 36.976 162.77 37.808C161.458 38.608 159.858 39.008 157.97 39.008Z" fill="white"/>
<path d="M181.921 17.024L182.545 22.784L182.401 21.92C183.009 20.672 183.841 19.616 184.897 18.752C185.953 17.856 186.993 17.168 188.017 16.688C189.073 16.208 189.873 15.968 190.417 15.968L190.081 22.688C188.513 22.496 187.169 22.752 186.049 23.456C184.929 24.16 184.065 25.088 183.457 26.24C182.849 27.392 182.545 28.576 182.545 29.792V38H175.873V17.024H181.921Z" fill="white"/>
<path d="M201.583 38.576C199.023 38.576 196.847 38.096 195.055 37.136C193.295 36.176 191.951 34.848 191.023 33.152C190.095 31.456 189.631 29.504 189.631 27.296C189.631 25.184 190.175 23.28 191.263 21.584C192.351 19.888 193.807 18.544 195.631 17.552C197.455 16.528 199.487 16.016 201.727 16.016C204.735 16.016 207.199 16.896 209.119 18.656C211.071 20.384 212.335 22.896 212.911 26.192L196.591 31.376L195.103 27.728L206.911 23.744L205.519 24.368C205.263 23.536 204.799 22.816 204.127 22.208C203.487 21.568 202.511 21.248 201.199 21.248C199.695 21.248 198.495 21.76 197.599 22.784C196.703 23.808 196.255 25.184 196.255 26.912C196.255 28.864 196.783 30.352 197.839 31.376C198.895 32.368 200.191 32.864 201.727 32.864C202.463 32.864 203.167 32.736 203.839 32.48C204.543 32.224 205.231 31.888 205.903 31.472L208.879 36.464C207.759 37.104 206.543 37.616 205.231 38C203.951 38.384 202.735 38.576 201.583 38.576Z" fill="white"/>
</svg>
